<svg width="40" height="40" viewBox="0 0 40 40" fill="none" xmlns="http://www.w3.org/2000/svg">
<rect width="40" height="40" rx="16" fill="#26293B"/>
<path d="M20.5 13C20.5 12.7239 20.2761 12.5 20 12.5C19.7239 12.5 19.5 12.7239 19.5 13V14H15C14.7239 14 14.5 14.2239 14.5 14.5C14.5 14.7761 14.7239 15 15 15H25C25.2761 15 25.5 14.7761 25.5 14.5C25.5 14.2239 25.2761 14 25 14H20.5V13Z" fill="#8C90A8"/>
<path d="M15.9969 17.4448C15.9664 17.1703 15.7192 16.9726 15.4448 17.0031C15.1703 17.0336 14.9726 17.2808 15.0031 17.5552L16.0031 26.5552C16.0312 26.8084 16.2452 27 16.5 27H23.5C23.7548 27 23.9688 26.8084 23.9969 26.5552L24.9969 17.5552C25.0274 17.2808 24.8297 17.0336 24.5552 17.0031C24.2808 16.9726 24.0336 17.1703 24.0031 17.4448L23.0525 26H16.9475L15.9969 17.4448Z" fill="#8C90A8"/>
</svg>
