<svg width="12" height="12" viewBox="0 0 12 12" fill="none" xmlns="http://www.w3.org/2000/svg">
<path fill-rule="evenodd" clip-rule="evenodd" d="M11.3536 0.646447C11.5488 0.841709 11.5488 1.15829 11.3536 1.35355L4.85355 7.85355C4.65829 8.04882 4.34171 8.04882 4.14645 7.85355C3.95118 7.65829 3.95118 7.34171 4.14645 7.14645L10.6464 0.646447C10.8417 0.451184 11.1583 0.451184 11.3536 0.646447ZM1.5 3C1.22386 3 1 3.22386 1 3.5V10.5C1 10.7761 1.22386 11 1.5 11H8.5C8.77614 11 9 10.7761 9 10.5V7C9 6.72386 9.22386 6.5 9.5 6.5C9.77614 6.5 10 6.72386 10 7V10.5C10 11.3284 9.32843 12 8.5 12H1.5C0.671573 12 0 11.3284 0 10.5V3.5C0 2.67157 0.671573 2 1.5 2H4.5C4.77614 2 5 2.22386 5 2.5C5 2.77614 4.77614 3 4.5 3H1.5Z" fill="#8C90A8"/>
</svg>
