<svg width="127" height="24" viewBox="0 0 127 24" fill="none" xmlns="http://www.w3.org/2000/svg">
<path d="M14.2098 0.823999H19.2018V23H14.2098V13.592H5.82575V23H0.83375V0.823999H5.82575V9.304H14.2098V0.823999ZM114.439 0.567999C117.767 0.567999 120.316 1.16533 122.087 2.36C123.857 3.53333 124.743 5.368 124.743 7.864C124.743 9.42133 124.38 10.6907 123.655 11.672C122.951 12.632 121.927 13.3893 120.583 13.944C121.031 14.4987 121.5 15.1387 121.991 15.864C122.481 16.568 122.961 17.3147 123.431 18.104C123.921 18.872 124.391 19.6827 124.839 20.536C125.287 21.368 125.703 22.1893 126.087 23H120.487C120.081 22.2747 119.665 21.5387 119.239 20.792C118.833 20.0453 118.407 19.32 117.958 18.616C117.532 17.912 117.105 17.2507 116.679 16.632C116.252 15.992 115.825 15.416 115.399 14.904H112.935V23H107.942V1.144C109.031 0.930666 110.15 0.781333 111.302 0.695999C112.476 0.610666 113.521 0.567999 114.439 0.567999ZM114.727 4.824C114.364 4.824 114.033 4.83467 113.734 4.856C113.457 4.87733 113.191 4.89867 112.935 4.92V10.936H114.342C116.22 10.936 117.564 10.7013 118.375 10.232C119.185 9.76267 119.591 8.96267 119.591 7.832C119.591 6.744 119.175 5.976 118.343 5.528C117.532 5.05867 116.327 4.824 114.727 4.824Z" fill="#62CDF6"/>
<path d="M32.6858 11.896C32.6858 12.984 32.8138 13.9653 33.0698 14.84C33.3471 15.7147 33.7311 16.472 34.2218 17.112C34.7338 17.7307 35.3524 18.2107 36.0778 18.552C36.8031 18.8933 37.6351 19.064 38.5738 19.064C39.4911 19.064 40.3124 18.8933 41.0378 18.552C41.7844 18.2107 42.4031 17.7307 42.8938 17.112C43.4058 16.472 43.7898 15.7147 44.0458 14.84C44.3231 13.9653 44.4618 12.984 44.4618 11.896C44.4618 10.808 44.3231 9.82667 44.0458 8.952C43.7898 8.056 43.4058 7.29867 42.8938 6.68C42.4031 6.04 41.7844 5.54933 41.0378 5.208C40.3124 4.86667 39.4911 4.696 38.5738 4.696C37.6351 4.696 36.8031 4.87733 36.0778 5.24C35.3524 5.58133 34.7338 6.072 34.2218 6.712C33.7311 7.33067 33.3471 8.088 33.0698 8.984C32.8138 9.85867 32.6858 10.8293 32.6858 11.896ZM49.6138 11.896C49.6138 13.7947 49.3258 15.4693 48.7498 16.92C48.1951 18.3493 47.4271 19.5547 46.4458 20.536C45.4644 21.496 44.2911 22.2213 42.9258 22.712C41.5818 23.2027 40.1311 23.448 38.5738 23.448C37.0591 23.448 35.6298 23.2027 34.2858 22.712C32.9418 22.2213 31.7684 21.496 30.7658 20.536C29.7631 19.5547 28.9738 18.3493 28.3978 16.92C27.8218 15.4693 27.5338 13.7947 27.5338 11.896C27.5338 9.99733 27.8324 8.33333 28.4298 6.904C29.0271 5.45333 29.8271 4.23733 30.8298 3.256C31.8538 2.27467 33.0271 1.53867 34.3498 1.048C35.6938 0.557332 37.1018 0.311998 38.5738 0.311998C40.0884 0.311998 41.5178 0.557332 42.8618 1.048C44.2058 1.53867 45.3791 2.27467 46.3818 3.256C47.3844 4.23733 48.1738 5.45333 48.7498 6.904C49.3258 8.33333 49.6138 9.99733 49.6138 11.896ZM63.7145 23C62.8398 21.144 61.9758 19.2133 61.1225 17.208C60.2692 15.2027 59.4585 13.2187 58.6905 11.256C57.9225 9.29333 57.2078 7.416 56.5465 5.624C55.9065 3.832 55.3518 2.232 54.8825 0.823999H60.3865C60.8132 2.104 61.2718 3.49067 61.7625 4.984C62.2745 6.456 62.7865 7.928 63.2985 9.4C63.8318 10.872 64.3438 12.28 64.8345 13.624C65.3252 14.968 65.7838 16.1307 66.2105 17.112C66.6158 16.1307 67.0638 14.968 67.5545 13.624C68.0665 12.28 68.5785 10.872 69.0905 9.4C69.6238 7.928 70.1358 6.456 70.6265 4.984C71.1385 3.49067 71.6078 2.104 72.0345 0.823999H77.3465C76.8558 2.232 76.2905 3.832 75.6505 5.624C75.0105 7.416 74.3065 9.29333 73.5385 11.256C72.7705 13.2187 71.9598 15.2027 71.1065 17.208C70.2532 19.2133 69.3892 21.144 68.5145 23H63.7145ZM84.3762 23V0.823999H99.3522V5.016H89.3682V9.368H98.2322V13.464H89.3682V18.808H100.088V23H84.3762Z" fill="white"/>
</svg>
