<svg width="16" height="16" viewBox="0 0 16 16" fill="none" xmlns="http://www.w3.org/2000/svg">
<path fill-rule="evenodd" clip-rule="evenodd" d="M12.7732 3.97707C11.6016 2.8055 9.7021 2.8055 8.53053 3.97707C7.68849 4.8191 7.45093 6.03783 7.82069 7.09308L7.92619 7.39413L2.10577 13.061L2.49057 13.1477C3.37673 13.3471 4.30053 13.281 5.14713 12.9599L5.68476 11.7054L6.72126 11.3599L7.06676 10.3234L8.42207 9.74256L9.34583 8.8188L9.64356 8.92474C10.7019 9.30134 11.9275 9.06537 12.7732 8.21971C13.9447 7.04814 13.9447 5.14864 12.7732 3.97707ZM7.82342 3.26996C9.38552 1.70786 11.9182 1.70786 13.4803 3.26996C15.0424 4.83206 15.0424 7.36472 13.4803 8.92682C12.4329 9.9742 10.9498 10.3187 9.61625 9.96259L8.993 10.5858L7.87344 11.0657L7.51183 12.1505L6.42701 12.5121L5.90634 13.727L5.72249 13.8058C4.63407 14.2722 3.42623 14.3833 2.27098 14.1232L1.11484 13.863C0.67226 13.7634 0.516651 13.2126 0.841689 12.8961L6.78196 7.11249C6.43527 5.78458 6.78166 4.31173 7.82342 3.26996Z" fill="#CFD0E1"/>
<path d="M11.3592 6.8054C10.9686 7.19592 10.3355 7.19592 9.94495 6.8054C9.55442 6.41488 9.55442 5.78171 9.94495 5.39119C10.3355 5.00066 10.9686 5.00066 11.3592 5.39119C11.7497 5.78171 11.7497 6.41488 11.3592 6.8054Z" fill="#CFD0E1"/>
</svg>
