<svg width="40" height="40" viewBox="0 0 40 40" fill="none" xmlns="http://www.w3.org/2000/svg">
<rect width="40" height="40" rx="16" fill="#26293B"/>
<path fill-rule="evenodd" clip-rule="evenodd" d="M26.3536 13.6464C26.5488 13.8417 26.5488 14.1583 26.3536 14.3536L19.8536 20.8536C19.6583 21.0488 19.3417 21.0488 19.1464 20.8536C18.9512 20.6583 18.9512 20.3417 19.1464 20.1464L25.6464 13.6464C25.8417 13.4512 26.1583 13.4512 26.3536 13.6464ZM16.5 16C16.2239 16 16 16.2239 16 16.5V23.5C16 23.7761 16.2239 24 16.5 24H23.5C23.7761 24 24 23.7761 24 23.5V20C24 19.7239 24.2239 19.5 24.5 19.5C24.7761 19.5 25 19.7239 25 20V23.5C25 24.3284 24.3284 25 23.5 25H16.5C15.6716 25 15 24.3284 15 23.5V16.5C15 15.6716 15.6716 15 16.5 15H19.5C19.7761 15 20 15.2239 20 15.5C20 15.7761 19.7761 16 19.5 16H16.5Z" fill="#8C90A8"/>
</svg>
