<svg width="24" height="16" viewBox="0 0 24 16" fill="none" xmlns="http://www.w3.org/2000/svg">
<path d="M12 11C13.6569 11 15 9.65685 15 8C15 6.34315 13.6569 5 12 5C10.3431 5 9 6.34315 9 8C9 9.65685 10.3431 11 12 11Z" fill="white"/>
<path fill-rule="evenodd" clip-rule="evenodd" d="M11.9999 2C7.31203 1.99998 3.69715 4.6059 2.11178 7.77665L2 8.00021L2.11174 8.22379C3.72468 11.4511 7.31377 14 11.9999 14C16.6861 14 20.2753 11.4508 21.8883 8.22355L22 7.99997L21.8882 7.77641C20.3029 4.60566 16.6878 1.99998 11.9999 2ZM11.9999 13C7.79822 13 4.56004 10.7792 3.06329 8.00021C4.53828 5.26943 7.80177 2.99999 11.9999 3C16.198 2.99999 19.4615 5.26943 20.9365 8.00021C19.4398 10.7792 16.2016 13 11.9999 13Z" fill="white"/>
</svg>
