<svg width="12" height="15" viewBox="0 0 12 15" fill="none" xmlns="http://www.w3.org/2000/svg">
<path d="M6.5 1C6.5 0.723858 6.27614 0.5 6 0.5C5.72386 0.5 5.5 0.723858 5.5 1V2H1C0.723858 2 0.5 2.22386 0.5 2.5C0.5 2.77614 0.723858 3 1 3H11C11.2761 3 11.5 2.77614 11.5 2.5C11.5 2.22386 11.2761 2 11 2H6.5V1Z" fill="#8C90A8"/>
<path d="M1.99694 5.44478C1.96645 5.17033 1.71924 4.97256 1.44478 5.00306C1.17033 5.03355 0.972563 5.28076 1.00306 5.55522L2.00306 14.5552C2.03119 14.8084 2.24523 15 2.5 15H9.5C9.75478 15 9.96881 14.8084 9.99694 14.5552L10.9969 5.55522C11.0274 5.28076 10.8297 5.03355 10.5552 5.00306C10.2808 4.97256 10.0336 5.17033 10.0031 5.44478L9.05248 14H2.94752L1.99694 5.44478Z" fill="#8C90A8"/>
</svg>
