<svg width="192" height="192" viewBox="0 0 192 192" fill="none" xmlns="http://www.w3.org/2000/svg">
<path d="M0 96C0 42.9807 42.9807 0 96 0C149.019 0 192 42.9807 192 96C192 149.019 149.019 192 96 192C42.9807 192 0 149.019 0 96Z" fill="#26293B"/>
<path fill-rule="evenodd" clip-rule="evenodd" d="M99 18.0004C100.214 17.0882 101 15.6358 101 14C101 11.2386 98.7614 9 96 9C93.2386 9 91 11.2386 91 14C91 15.6358 91.7856 17.0882 93 18.0004V52H99V18.0004Z" fill="#43465A"/>
<path d="M99 18.0004L97.7988 16.4012L97 17.0013V18.0004H99ZM93 18.0004H95V17.0013L94.2012 16.4012L93 18.0004ZM93 52H91V54H93V52ZM99 52V54H101V52H99ZM99 14C99 14.9802 98.532 15.8505 97.7988 16.4012L100.201 19.5995C101.897 18.3258 103 16.2914 103 14H99ZM96 11C97.6569 11 99 12.3431 99 14H103C103 10.134 99.866 7 96 7V11ZM93 14C93 12.3431 94.3431 11 96 11V7C92.134 7 89 10.134 89 14H93ZM94.2012 16.4012C93.468 15.8505 93 14.9802 93 14H89C89 16.2914 90.1031 18.3258 91.7988 19.5995L94.2012 16.4012ZM95 52V18.0004H91V52H95ZM99 50H93V54H99V50ZM97 18.0004V52H101V18.0004H97Z" fill="#181A28"/>
<circle cx="94.5" cy="61.5" r="14.5" fill="#303342"/>
<path fill-rule="evenodd" clip-rule="evenodd" d="M65.9503 27.7077C65.9831 27.4765 66 27.2402 66 27C66 24.2386 63.7614 22 61 22C58.2386 22 56 24.2386 56 27C56 29.7614 58.2386 32 61 32C61.2402 32 61.4765 31.9831 61.7076 31.9503L85.8701 56.1127L90.1127 51.8701L65.9503 27.7077Z" fill="#43465A"/>
<path d="M65.9503 27.7077L63.9701 27.4271L63.83 28.4158L64.5361 29.1219L65.9503 27.7077ZM61.7076 31.9503L63.1218 30.5361L62.4158 29.83L61.4271 29.9701L61.7076 31.9503ZM85.8701 56.1127L84.4558 57.5269L85.8701 58.9412L87.2843 57.5269L85.8701 56.1127ZM90.1127 51.8701L91.5269 53.2843L92.9411 51.8701L91.5269 50.4559L90.1127 51.8701ZM64 27C64 27.1461 63.9897 27.2886 63.9701 27.4271L67.9305 27.9883C67.9764 27.6644 68 27.3344 68 27H64ZM61 24C62.6569 24 64 25.3431 64 27H68C68 23.134 64.866 20 61 20V24ZM58 27C58 25.3431 59.3431 24 61 24V20C57.134 20 54 23.134 54 27H58ZM61 30C59.3431 30 58 28.6569 58 27H54C54 30.866 57.134 34 61 34V30ZM61.4271 29.9701C61.2886 29.9897 61.1461 30 61 30V34C61.3344 34 61.6643 33.9764 61.9882 33.9305L61.4271 29.9701ZM87.2843 54.6985L63.1218 30.5361L60.2934 33.3645L84.4558 57.5269L87.2843 54.6985ZM88.6985 50.4559L84.4558 54.6985L87.2843 57.5269L91.5269 53.2843L88.6985 50.4559ZM64.5361 29.1219L88.6985 53.2843L91.5269 50.4559L67.3645 26.2935L64.5361 29.1219Z" fill="#181A28"/>
<ellipse cx="91" cy="61.5" rx="11" ry="14.5" fill="#43465A"/>
<circle cx="94.5" cy="61.5" r="14.5" stroke="#181A28" stroke-width="4" stroke-linecap="round"/>
<path d="M33.2236 163.053L42.5 144.5H60L40.2929 164.207C40.1054 164.395 39.851 164.5 39.5858 164.5H34.118C33.3747 164.5 32.8912 163.718 33.2236 163.053Z" fill="#43465A"/>
<path d="M33.2236 163.053L42.5 144.5H60L40.2929 164.207C40.1054 164.395 39.851 164.5 39.5858 164.5H34.118C33.3747 164.5 32.8912 163.718 33.2236 163.053Z" stroke="#181A28" stroke-width="4" stroke-linecap="round"/>
<path d="M130.776 163.053L121.5 144.5H104L123.707 164.207C123.895 164.395 124.149 164.5 124.414 164.5H129.882C130.625 164.5 131.109 163.718 130.776 163.053Z" fill="#43465A"/>
<path d="M130.776 163.053L121.5 144.5H104L123.707 164.207C123.895 164.395 124.149 164.5 124.414 164.5H129.882C130.625 164.5 131.109 163.718 130.776 163.053Z" stroke="#181A28" stroke-width="4" stroke-linecap="round"/>
<path d="M165.276 158.326L158.364 144.5H145L159.98 159.48C160.167 159.667 160.422 159.773 160.687 159.773H164.382C165.125 159.773 165.609 158.99 165.276 158.326Z" fill="#303342"/>
<path d="M165.276 158.326L158.364 144.5H145L159.98 159.48C160.167 159.667 160.422 159.773 160.687 159.773H164.382C165.125 159.773 165.609 158.99 165.276 158.326Z" stroke="#181A28" stroke-width="4" stroke-linecap="round"/>
<path d="M69.7236 158.326L76.6364 144.5H90L75.0202 159.48C74.8326 159.667 74.5783 159.773 74.3131 159.773H70.618C69.8747 159.773 69.3912 158.99 69.7236 158.326Z" fill="#303342"/>
<path d="M69.7236 158.326L76.6364 144.5H90L75.0202 159.48C74.8326 159.667 74.5783 159.773 74.3131 159.773H70.618C69.8747 159.773 69.3912 158.99 69.7236 158.326Z" stroke="#181A28" stroke-width="4" stroke-linecap="round"/>
<path d="M48 70C48 65.5817 51.5817 62 56 62H162C166.418 62 170 65.5817 170 70V141C170 145.418 166.418 149 162 149H56C51.5817 149 48 145.418 48 141V70Z" fill="#303342"/>
<rect x="24" y="62" width="112" height="87" rx="8" fill="#43465A"/>
<path d="M144 149H32C27.5817 149 24 145.418 24 141V70C24 65.5817 27.5817 62 32 62H46" stroke="#181A28" stroke-width="4" stroke-linecap="round"/>
<path d="M136 149H169.204C170.748 149 172 145.418 172 141V70C172 65.5817 170.748 62 169.204 62H57" stroke="#181A28" stroke-width="4" stroke-linecap="round"/>
<path d="M136.5 104V141C136.5 145.418 134 149 129.704 149H96.5" stroke="#181A28" stroke-width="4" stroke-linecap="round"/>
<path d="M100 125H41C38.7909 125 37 123.209 37 121V77C37 74.7909 38.7909 73 41 73H119C121.209 73 123 74.7909 123 77V121C123 123.209 121.209 125 119 125H113.5" stroke="#181A28" stroke-width="4" stroke-linecap="round"/>
<path d="M65 97C65 98 65.5 100 68 100C70.5 100 71.5 98.5 71.5 97" stroke="#181A28" stroke-width="4" stroke-linecap="round"/>
<path d="M88.5 97C88.5 98 89 100 91.5 100C94 100 95 98.5 95 97" stroke="#181A28" stroke-width="4" stroke-linecap="round"/>
<path d="M78.5 99.5C78.5 99.5 79 100 80 100C81 100 81.5 99.5 81.5 99.5" stroke="#181A28" stroke-width="4" stroke-linecap="round"/>
</svg>
