<svg width="18" height="15" viewBox="0 0 18 15" fill="none" xmlns="http://www.w3.org/2000/svg">
<path d="M7.82432 2.49946C8.30356 0.738939 9.95814 0 11.7216 0C14.625 0 16.0082 2.30784 15.7302 4.77237C17.1477 5.09368 18 6.38933 18 7.79114C18 9.5627 16.4883 11 14.625 11H12.2143H5.78571H3.375C1.51172 11 0 9.5627 0 7.79114C0 6.01958 1.51172 4.88788 3.375 4.88788C3.41557 4.88788 3.45462 4.89291 3.49349 4.89791C3.52095 4.90145 3.54832 4.90497 3.57606 4.9067C3.57606 2.51081 6.12387 1.70619 7.82432 2.49946Z" fill="white"/>
<path d="M7.00002 9L7.00002 13.5L7.00002 14L7.50002 14L10.5 14L11 14L11 13.5L11 9L11.8965 9C12.5646 9 12.8993 8.19215 12.4268 7.71967L9.35358 4.64645L9.00002 4.29289L8.64647 4.64645L5.57325 7.71967C5.10077 8.19215 5.4354 9 6.10358 9L7.00002 9Z" fill="white" stroke="#038EC9"/>
</svg>
